
<svg xmlns="http://www.w3.org/2000/svg" xml:space="preserve" width="13.1451mm" height="175.715mm" version="1.1" style="shape-rendering:geometricPrecision; text-rendering:geometricPrecision; image-rendering:optimizeQuality; fill-rule:evenodd; clip-rule:evenodd"
viewBox="0 0 260.56 3482.95"
 xmlns:xlink="http://www.w3.org/1999/xlink"
>
 <defs>
 </defs>
 <g id="Layer_x0020_1">
  <metadata id="CorelCorpID_0Corel-Layer"/>
  <g id="_2193492751984">
   <path fill="#394C9B" class="fil0" d="M69.81 0l0 0c0,38.39 31.42,69.81 69.81,69.81l0 0c-38.39,0 -69.81,31.41 -69.81,69.81l0 0c0,-38.39 -31.42,-69.81 -69.81,-69.81l0 -0c38.39,0 69.81,-31.41 69.81,-69.81z"/>
   <path fill="#394C9B" class="fil0" d="M69.81 155.57l0 0c0,38.39 31.42,69.81 69.81,69.81l0 0c-38.39,0 -69.81,31.42 -69.81,69.81l0 0c0,-38.39 -31.42,-69.81 -69.81,-69.81l0 -0c38.39,0 69.81,-31.41 69.81,-69.81z"/>
   <path fill="#394C9B" class="fil0" d="M69.81 311.15l0 0c0,38.39 31.42,69.81 69.81,69.81l0 0c-38.39,0 -69.81,31.42 -69.81,69.81l0 0c0,-38.39 -31.42,-69.81 -69.81,-69.81l0 -0c38.39,0 69.81,-31.41 69.81,-69.81z"/>
   <path fill="#394C9B" class="fil0" d="M69.81 466.72l0 0c0,38.39 31.42,69.81 69.81,69.81l0 0c-38.39,0 -69.81,31.42 -69.81,69.81l0 0c0,-38.39 -31.42,-69.81 -69.81,-69.81l0 0c38.39,0 69.81,-31.42 69.81,-69.81z"/>
   <path fill="#394C9B" class="fil0" d="M69.81 622.3l0 0c0,38.39 31.42,69.81 69.81,69.81l0 0c-38.39,0 -69.81,31.41 -69.81,69.81l0 0c0,-38.39 -31.42,-69.81 -69.81,-69.81l0 -0c38.39,0 69.81,-31.42 69.81,-69.81z"/>
   <path fill="#394C9B" class="fil0" d="M69.81 777.87l0 0c0,38.39 31.42,69.81 69.81,69.81l0 0c-38.39,0 -69.81,31.41 -69.81,69.81l0 0c0,-38.39 -31.42,-69.81 -69.81,-69.81l0 -0c38.39,0 69.81,-31.41 69.81,-69.81z"/>
   <path fill="#394C9B" class="fil0" d="M69.81 933.45l0 0c0,38.39 31.42,69.81 69.81,69.81l0 0c-38.39,0 -69.81,31.41 -69.81,69.81l0 0c0,-38.39 -31.42,-69.81 -69.81,-69.81l0 -0c38.39,0 69.81,-31.41 69.81,-69.81z"/>
   <path fill="#394C9B" class="fil0" d="M69.81 1089.02l0 0c0,38.39 31.42,69.81 69.81,69.81l0 0c-38.39,0 -69.81,31.42 -69.81,69.81l0 0c0,-38.39 -31.42,-69.81 -69.81,-69.81l0 -0c38.39,0 69.81,-31.41 69.81,-69.81z"/>
   <path fill="#394C9B" class="fil0" d="M69.81 1244.6l0 0c0,38.39 31.42,69.81 69.81,69.81l0 0c-38.39,0 -69.81,31.42 -69.81,69.81l0 0c0,-38.39 -31.42,-69.81 -69.81,-69.81l0 0c38.39,0 69.81,-31.42 69.81,-69.81z"/>
   <path fill="#394C9B" class="fil0" d="M69.81 1400.17l0 0c0,38.39 31.42,69.81 69.81,69.81l0 0c-38.39,0 -69.81,31.42 -69.81,69.81l0 0c0,-38.39 -31.42,-69.81 -69.81,-69.81l0 0c38.39,0 69.81,-31.42 69.81,-69.81z"/>
   <path fill="#394C9B" class="fil0" d="M69.81 1555.74l0 0c0,38.39 31.42,69.81 69.81,69.81l0 0c-38.39,0 -69.81,31.41 -69.81,69.81l0 0c0,-38.39 -31.42,-69.81 -69.81,-69.81l0 -0c38.39,0 69.81,-31.42 69.81,-69.81z"/>
   <path fill="#394C9B" class="fil0" d="M69.81 1711.32l0 0c0,38.39 31.42,69.81 69.81,69.81l0 0c-38.39,0 -69.81,31.41 -69.81,69.81l0 0c0,-38.39 -31.42,-69.81 -69.81,-69.81l0 -0c38.39,0 69.81,-31.41 69.81,-69.81z"/>
   <path fill="#394C9B" class="fil0" d="M69.81 1866.89l0 0c0,38.39 31.42,69.81 69.81,69.81l0 0c-38.39,0 -69.81,31.41 -69.81,69.81l0 0c0,-38.39 -31.42,-69.81 -69.81,-69.81l0 -0c38.39,0 69.81,-31.41 69.81,-69.81z"/>
   <path fill="#394C9B" class="fil0" d="M69.81 2022.46l0 0c0,38.39 31.42,69.81 69.81,69.81l0 0c-38.39,0 -69.81,31.42 -69.81,69.81l0 0c0,-38.39 -31.42,-69.81 -69.81,-69.81l0 -0c38.39,0 69.81,-31.41 69.81,-69.81z"/>
   <path fill="#394C9B" class="fil0" d="M69.81 2178.04l0 0c0,38.39 31.42,69.81 69.81,69.81l0 0c-38.39,0 -69.81,31.42 -69.81,69.81l0 0c0,-38.39 -31.42,-69.81 -69.81,-69.81l0 0c38.39,0 69.81,-31.42 69.81,-69.81z"/>
   <path fill="#394C9B" class="fil0" d="M69.81 2333.61l0 0c0,38.39 31.42,69.81 69.81,69.81l0 0c-38.39,0 -69.81,31.41 -69.81,69.81l0 0c0,-38.39 -31.42,-69.81 -69.81,-69.81l0 -0c38.39,0 69.81,-31.41 69.81,-69.81z"/>
   <path fill="#394C9B" class="fil0" d="M69.81 2489.19l0 0c0,38.39 31.42,69.81 69.81,69.81l0 0c-38.39,0 -69.81,31.41 -69.81,69.81l0 0c0,-38.39 -31.42,-69.81 -69.81,-69.81l0 -0c38.39,0 69.81,-31.42 69.81,-69.81z"/>
   <path fill="#394C9B" class="fil0" d="M69.81 2644.76l0 0c0,38.39 31.42,69.81 69.81,69.81l0 0c-38.39,0 -69.81,31.41 -69.81,69.81l0 0c0,-38.39 -31.42,-69.81 -69.81,-69.81l0 -0c38.39,0 69.81,-31.41 69.81,-69.81z"/>
   <path fill="#394C9B" class="fil0" d="M69.81 2800.34l0 0c0,38.39 31.42,69.81 69.81,69.81l0 0c-38.39,0 -69.81,31.42 -69.81,69.81l0 0c0,-38.39 -31.42,-69.81 -69.81,-69.81l0 0c38.39,0 69.81,-31.42 69.81,-69.81z"/>
   <path fill="#394C9B" class="fil0" d="M69.81 2955.91l0 0c0,38.39 31.42,69.81 69.81,69.81l0 0c-38.39,0 -69.81,31.41 -69.81,69.81l0 0c0,-38.39 -31.42,-69.81 -69.81,-69.81l0 -0c38.39,0 69.81,-31.41 69.81,-69.81z"/>
   <path fill="#394C9B" class="fil0" d="M69.81 3111.49l0 0c0,38.39 31.42,69.81 69.81,69.81l0 0c-38.39,0 -69.81,31.42 -69.81,69.81l0 0c0,-38.39 -31.42,-69.81 -69.81,-69.81l0 0c38.39,0 69.81,-31.42 69.81,-69.81z"/>
   <path fill="#394C9B" class="fil0" d="M69.81 3267.06l0 0c0,38.39 31.42,69.81 69.81,69.81l0 0c-38.39,0 -69.81,31.41 -69.81,69.81l0 0c0,-38.39 -31.42,-69.81 -69.81,-69.81l0 -0c38.39,0 69.81,-31.41 69.81,-69.81z"/>
   <path fill="#394C9B" class="fil0" d="M190.75 76.27l0 0c0,38.39 31.42,69.81 69.81,69.81l0 0c-38.39,0 -69.81,31.42 -69.81,69.81l0 0c0,-38.39 -31.42,-69.81 -69.81,-69.81l0 -0c38.39,0 69.81,-31.41 69.81,-69.81z"/>
   <path fill="#394C9B" class="fil0" d="M190.75 231.85l0 0c0,38.39 31.42,69.81 69.81,69.81l0 0c-38.39,0 -69.81,31.42 -69.81,69.81l0 0c0,-38.39 -31.42,-69.81 -69.81,-69.81l0 0c38.39,0 69.81,-31.42 69.81,-69.81z"/>
   <path fill="#394C9B" class="fil0" d="M190.75 387.42l0 0c0,38.39 31.42,69.81 69.81,69.81l0 0c-38.39,0 -69.81,31.41 -69.81,69.81l0 0c0,-38.39 -31.42,-69.81 -69.81,-69.81l0 -0c38.39,0 69.81,-31.42 69.81,-69.81z"/>
   <path fill="#394C9B" class="fil0" d="M190.75 542.99l0 0c0,38.39 31.42,69.81 69.81,69.81l0 0c-38.39,0 -69.81,31.41 -69.81,69.81l0 0c0,-38.39 -31.42,-69.81 -69.81,-69.81l0 -0c38.39,0 69.81,-31.42 69.81,-69.81z"/>
   <path fill="#394C9B" class="fil0" d="M190.75 698.57l0 0c0,38.39 31.42,69.81 69.81,69.81l0 0c-38.39,0 -69.81,31.41 -69.81,69.81l0 0c0,-38.39 -31.42,-69.81 -69.81,-69.81l0 -0c38.39,0 69.81,-31.41 69.81,-69.81z"/>
   <path fill="#394C9B" class="fil0" d="M190.75 854.14l0 0c0,38.39 31.42,69.81 69.81,69.81l0 0c-38.39,0 -69.81,31.42 -69.81,69.81l0 0c0,-38.39 -31.42,-69.81 -69.81,-69.81l0 0c38.39,0 69.81,-31.42 69.81,-69.81z"/>
   <path fill="#394C9B" class="fil0" d="M190.75 1009.72l0 0c0,38.39 31.42,69.81 69.81,69.81l0 0c-38.39,0 -69.81,31.41 -69.81,69.81l0 0c0,-38.39 -31.42,-69.81 -69.81,-69.81l0 -0c38.39,0 69.81,-31.41 69.81,-69.81z"/>
   <path fill="#394C9B" class="fil0" d="M190.75 1165.29l0 0c0,38.39 31.42,69.81 69.81,69.81l0 0c-38.39,0 -69.81,31.42 -69.81,69.81l0 0c0,-38.39 -31.42,-69.81 -69.81,-69.81l0 0c38.39,0 69.81,-31.42 69.81,-69.81z"/>
   <path fill="#394C9B" class="fil0" d="M190.75 1320.86l0 0c0,38.39 31.42,69.81 69.81,69.81l0 0c-38.39,0 -69.81,31.41 -69.81,69.81l0 0c0,-38.39 -31.42,-69.81 -69.81,-69.81l0 -0c38.39,0 69.81,-31.41 69.81,-69.81z"/>
   <path fill="#394C9B" class="fil0" d="M190.75 1476.44l0 0c0,38.39 31.42,69.81 69.81,69.81l0 0c-38.39,0 -69.81,31.42 -69.81,69.81l0 0c0,-38.39 -31.42,-69.81 -69.81,-69.81l0 0c38.39,0 69.81,-31.42 69.81,-69.81z"/>
   <path fill="#394C9B" class="fil0" d="M190.75 1632.01l0 0c0,38.39 31.42,69.81 69.81,69.81l0 0c-38.39,0 -69.81,31.41 -69.81,69.81l0 0c0,-38.39 -31.42,-69.81 -69.81,-69.81l0 -0c38.39,0 69.81,-31.41 69.81,-69.81z"/>
   <path fill="#394C9B" class="fil0" d="M190.75 1787.59l0 0c0,38.39 31.42,69.81 69.81,69.81l0 0c-38.39,0 -69.81,31.42 -69.81,69.81l0 0c0,-38.39 -31.42,-69.81 -69.81,-69.81l0 0c38.39,0 69.81,-31.42 69.81,-69.81z"/>
   <path fill="#394C9B" class="fil0" d="M190.75 1943.16l0 0c0,38.39 31.42,69.81 69.81,69.81l0 0c-38.39,0 -69.81,31.41 -69.81,69.81l0 0c0,-38.39 -31.42,-69.81 -69.81,-69.81l0 -0c38.39,0 69.81,-31.41 69.81,-69.81z"/>
   <path fill="#394C9B" class="fil0" d="M190.75 2098.74l0 0c0,38.39 31.42,69.81 69.81,69.81l0 0c-38.39,0 -69.81,31.42 -69.81,69.81l0 0c0,-38.39 -31.42,-69.81 -69.81,-69.81l0 0c38.39,0 69.81,-31.42 69.81,-69.81z"/>
   <path fill="#394C9B" class="fil0" d="M190.75 2254.31l0 0c0,38.39 31.42,69.81 69.81,69.81l0 0c-38.39,0 -69.81,31.41 -69.81,69.81l0 0c0,-38.39 -31.42,-69.81 -69.81,-69.81l0 -0c38.39,0 69.81,-31.41 69.81,-69.81z"/>
   <path fill="#394C9B" class="fil0" d="M190.75 2409.88l0 0c0,38.39 31.42,69.81 69.81,69.81l0 0c-38.39,0 -69.81,31.42 -69.81,69.81l0 0c0,-38.39 -31.42,-69.81 -69.81,-69.81l0 -0c38.39,0 69.81,-31.41 69.81,-69.81z"/>
   <path fill="#394C9B" class="fil0" d="M190.75 2565.46l0 0c0,38.39 31.42,69.81 69.81,69.81l0 0c-38.39,0 -69.81,31.41 -69.81,69.81l0 0c0,-38.39 -31.42,-69.81 -69.81,-69.81l0 -0c38.39,0 69.81,-31.41 69.81,-69.81z"/>
   <path fill="#394C9B" class="fil0" d="M190.75 2721.03l0 0c0,38.39 31.42,69.81 69.81,69.81l0 0c-38.39,0 -69.81,31.42 -69.81,69.81l0 0c0,-38.39 -31.42,-69.81 -69.81,-69.81l0 0c38.39,0 69.81,-31.42 69.81,-69.81z"/>
   <path fill="#394C9B" class="fil0" d="M190.75 2876.61l0 0c0,38.39 31.42,69.81 69.81,69.81l0 0c-38.39,0 -69.81,31.41 -69.81,69.81l0 0c0,-38.39 -31.42,-69.81 -69.81,-69.81l0 -0c38.39,0 69.81,-31.42 69.81,-69.81z"/>
   <path fill="#394C9B" class="fil0" d="M190.75 3032.18l0 0c0,38.39 31.42,69.81 69.81,69.81l0 0c-38.39,0 -69.81,31.42 -69.81,69.81l0 0c0,-38.39 -31.42,-69.81 -69.81,-69.81l0 0c38.39,0 69.81,-31.42 69.81,-69.81z"/>
   <path fill="#394C9B" class="fil0" d="M190.75 3187.76l0 0c0,38.39 31.42,69.81 69.81,69.81l0 0c-38.39,0 -69.81,31.41 -69.81,69.81l0 0c0,-38.39 -31.42,-69.81 -69.81,-69.81l0 -0c38.39,0 69.81,-31.41 69.81,-69.81z"/>
   <path fill="#394C9B" class="fil0" d="M190.75 3343.33l0 0c0,38.39 31.42,69.81 69.81,69.81l0 0c-38.39,0 -69.81,31.42 -69.81,69.81l0 0c0,-38.39 -31.42,-69.81 -69.81,-69.81l0 -0c38.39,0 69.81,-31.41 69.81,-69.81z"/>
  </g>
 </g>
</svg>
