<?xml version="1.0" encoding="UTF-8"?>
<!DOCTYPE svg PUBLIC "-//W3C//DTD SVG 1.1//EN" "http://www.w3.org/Graphics/SVG/1.1/DTD/svg11.dtd">
<!-- Creator: CorelDRAW -->
<svg xmlns="http://www.w3.org/2000/svg" xml:space="preserve" width="59.8934mm" height="14.457mm" version="1.1" style="shape-rendering:geometricPrecision; text-rendering:geometricPrecision; image-rendering:optimizeQuality; fill-rule:evenodd; clip-rule:evenodd"
viewBox="0 0 1346.51 325.02"
 xmlns:xlink="http://www.w3.org/1999/xlink">
 <defs>
     <clipPath id="id0" style="clip-rule:nonzero">
      <path d="M80.05 8.17l-80.05 0 0 307.94 80.05 0 0 -307.94z"/>
     </clipPath>
  <linearGradient id="id1" gradientUnits="userSpaceOnUse" x1="80.05" y1="19.07" x2="85.24" y2="387.01">
   <stop offset="0" style="stop-opacity:1; stop-color:#00A859"/>
   <stop offset="1" style="stop-opacity:1; stop-color:#11804C"/>
  </linearGradient>
  <linearGradient id="id2" gradientUnits="userSpaceOnUse" x1="5.41" y1="299.11" x2="80.05" y2="19.07">
   <stop offset="0" style="stop-opacity:1; stop-color:#F58634"/>
   <stop offset="1" style="stop-opacity:1; stop-color:#D77339"/>
  </linearGradient>
 </defs>
 <g id="Layer_x0020_1">
  <metadata id="CorelCorpID_0Corel-Layer"/>
  <g id="_2156569708416">
   <path fill="#FEFEFE" fill-rule="nonzero" class="fil0" d="M770.78 8.05l-23.66 0 0 91.02 23.66 0 0 -91.02zm15.45 91.02l23.66 0 0 -55.77 0.24 0 43.34 55.77 23.66 0 0 -91.02 -23.66 0 0 55.65 -0.24 0 -43.34 -55.65 -23.66 0 0 91.02zm106.36 0l33.56 0c25.23,0 46.24,-19.92 46.24,-45.51 0,-25.59 -20.89,-45.51 -46.24,-45.51l-33.56 0 0 91.02zm23.66 -70.98l5.56 0c15.21,0 25.96,9.17 25.96,25.47 0,17.74 -12.07,25.47 -26.2,25.47l-5.31 0 0 -50.94zm90.78 -20.04l-23.66 0 0 91.02 23.66 0 0 -91.02zm71.23 75.21l5.91 15.81 25.23 0 -34.28 -91.02 -25.83 0 -35.01 91.02 25.11 0 6.28 -15.81 32.59 0zm-6.4 -18.11l-19.68 0 9.78 -28.97 0.24 0 9.66 28.97zm-301.08 108.02l2.41 0c7.73,0 19.44,-1.09 19.44,9.9 0,10.02 -11.83,9.66 -18.83,9.66l-3.02 0 0 -19.56zm12.8 37.67c16.66,0 32.96,-6.28 32.96,-25.35 0,-12.68 -5.55,-21.49 -18.59,-23.18l0 -0.24c7.36,-3.74 10.02,-10.38 10.02,-18.59 0,-17.39 -10.86,-23.66 -27.04,-23.66l-33.8 0 0 91.02 36.46 0zm-12.8 -72.92l1.69 0c6.4,0 13.76,0.48 13.76,8.81 0,7.73 -6.52,8.81 -12.8,8.81l-2.66 0 0 -17.63zm113.36 -18.11l0 47.93c0,11.83 -0.85,24.75 -16.05,24.75 -15.21,0 -16.06,-12.92 -16.06,-24.75l0 -47.93 -23.66 0 0 51.19c0,11.71 0.48,23.3 9.54,32.11 7.61,7.49 19.56,10.14 30.18,10.14 10.62,0 22.57,-2.66 30.18,-10.14 9.05,-8.81 9.54,-20.4 9.54,-32.11l0 -51.19 -23.66 0zm98.03 5.07c-8.09,-4.59 -19.32,-7.48 -28.49,-7.48 -18.23,0 -31.39,12.07 -31.39,30.54 0,17.63 9.78,21.49 24.63,25.71 5.07,1.45 14.37,3.74 14.37,10.38 0,6.4 -5.91,9.17 -11.47,9.17 -8.09,0 -15.09,-4.22 -21,-9.42l-10.14 19.07c9.3,6.52 20.52,10.38 31.99,10.38 9.17,0 18.71,-2.54 25.83,-8.57 7.24,-6.16 9.42,-15.45 9.42,-24.51 0,-14.73 -9.78,-21.13 -22.45,-24.87l-6.04 -1.81c-4.11,-1.33 -10.5,-3.38 -10.5,-8.69 0,-5.07 5.8,-7.61 10.14,-7.61 5.79,0 11.35,2.41 15.69,6.04l9.42 -18.35zm38.63 -5.07l-23.66 0 0 91.02 23.66 0 0 -91.02zm15.45 91.02l23.66 0 0 -55.77 0.24 0 43.34 55.77 23.66 0 0 -91.02 -23.66 0 0 55.65 -0.24 0 -43.34 -55.65 -23.66 0 0 91.02zm158.15 -70.98l0 -20.04 -51.79 0 0 91.02 51.79 0 0 -20.04 -28.13 0 0 -15.69 26.68 0 0 -20.04 -26.68 0 0 -15.21 28.13 0zm74 -14.97c-8.09,-4.59 -19.32,-7.48 -28.49,-7.48 -18.23,0 -31.39,12.07 -31.39,30.54 0,17.63 9.78,21.49 24.63,25.71 5.07,1.45 14.37,3.74 14.37,10.38 0,6.4 -5.91,9.17 -11.47,9.17 -8.09,0 -15.09,-4.22 -21,-9.42l-10.14 19.07c9.3,6.52 20.52,10.38 31.99,10.38 9.17,0 18.71,-2.54 25.83,-8.57 7.24,-6.16 9.42,-15.45 9.42,-24.51 0,-14.73 -9.78,-21.13 -22.45,-24.87l-6.04 -1.81c-4.11,-1.33 -10.5,-3.38 -10.5,-8.69 0,-5.07 5.8,-7.61 10.14,-7.61 5.79,0 11.35,2.41 15.69,6.04l9.42 -18.35zm74.36 0c-8.09,-4.59 -19.32,-7.48 -28.49,-7.48 -18.23,0 -31.39,12.07 -31.39,30.54 0,17.63 9.78,21.49 24.63,25.71 5.07,1.45 14.37,3.74 14.37,10.38 0,6.4 -5.91,9.17 -11.47,9.17 -8.09,0 -15.09,-4.22 -21,-9.42l-10.14 19.07c9.3,6.52 20.52,10.38 31.99,10.38 9.17,0 18.71,-2.54 25.83,-8.57 7.24,-6.16 9.42,-15.45 9.42,-24.51 0,-14.73 -9.78,-21.13 -22.45,-24.87l-6.04 -1.81c-4.11,-1.33 -10.5,-3.38 -10.5,-8.69 0,-5.07 5.8,-7.61 10.14,-7.61 5.79,0 11.35,2.41 15.69,6.04l9.42 -18.35zm-530.57 108.87c-7,-2.9 -14,-4.59 -21.61,-4.59 -12.8,0 -25.71,5.55 -34.65,14.73 -8.69,8.93 -13.4,20.89 -13.4,33.32 0,13.52 4.59,25.35 14.61,34.4 9.42,8.57 21.49,13.4 34.16,13.4 7.37,0 13.04,-1.81 20.89,-4.22l0 -28.37c-4.95,5.91 -12.68,9.66 -20.4,9.66 -14.73,0 -24.63,-10.38 -24.63,-24.75 0,-14.12 9.78,-25.23 24.26,-25.23 8.09,0 15.94,3.5 20.76,10.02l0 -28.37zm66.4 17.87l0 -20.04 -51.79 0 0 91.02 51.79 0 0 -20.04 -28.13 0 0 -15.69 26.68 0 0 -20.04 -26.68 0 0 -15.21 28.13 0zm14.61 70.98l23.66 0 0 -55.77 0.24 0 43.34 55.77 23.66 0 0 -91.02 -23.66 0 0 55.65 -0.24 0 -43.34 -55.65 -23.66 0 0 91.02zm142.57 -70.98l19.56 0 0 -20.04 -62.78 0 0 20.04 19.56 0 0 70.98 23.66 0 0 -70.98zm75.21 33.68c12.92,-2.29 19.92,-13.16 19.92,-25.71 0,-19.44 -13.64,-28.01 -31.63,-28.01l-35.37 0 0 91.02 23.66 0 0 -35.01 0.24 0 22.33 35.01 29.46 0 -28.61 -37.3zm-23.42 -35.61l2.3 0c7.72,0 16.42,1.45 16.42,11.35 0,9.9 -8.69,11.35 -16.42,11.35l-2.3 0 0 -22.7zm110.22 1.93l0 -20.04 -51.79 0 0 91.02 51.79 0 0 -20.04 -28.13 0 0 -15.69 26.68 0 0 -20.04 -26.68 0 0 -15.21 28.13 0z"/>
   <polygon fill="#FEFEFE" class="fil1" points="676.58,6.79 684.71,6.79 684.71,323.95 676.58,323.95 "/>
   <g>
    <polygon fill="#FEFEFE" fill-rule="nonzero" class="fil2" points="80.05,8.17 -0,8.17 -0,316.11 80.05,316.11 "/>
    <g style="clip-path:url(#id0)">
     <g>
      <path fill="url(#id2)" id="_1" class="fil3" d="M91.29 0.56c-4.32,0.96 -11.24,7.61 -11.24,7.61 -30.31,79.62 -30.47,191.97 -80.05,248.9 0,0 -14.31,48.74 -13.82,53.54 0.48,4.8 -4.32,20.64 5.28,22.08 9.6,1.44 132.95,4.8 132.95,4.8 0,0 -17.28,-14.88 -14.88,-33.12 2.4,-18.24 -4.8,-106.55 -1.44,-129.59 3.36,-23.04 7.2,-105.59 7.2,-109.91 0,-4.32 -24,-64.32 -24,-64.32z"/>
      <path fill="#FEFEFE" class="fil4" d="M91.29 47.59c-4.32,0.96 -11.24,-39.42 -11.24,-39.42 -14.98,94.66 -17.05,238.74 -80.05,311.08 0,0 -14.31,33.6 -13.82,38.4 0.48,4.8 -4.32,20.64 5.28,22.08 9.6,1.44 132.95,4.8 132.95,4.8 0,0 -17.28,-14.88 -14.88,-33.12 2.4,-18.24 -4.8,-106.55 -1.44,-129.59 3.36,-23.04 7.2,-105.59 7.2,-109.91 0,-4.32 -24,-64.31 -24,-64.31z"/>
      <path fill="url(#id1)" class="fil5" d="M118.62 52.05c-4.32,0.96 -37.3,-41.85 -37.3,-41.85 -14.98,94.66 12.36,241.17 -50.64,313.51 0,0 -17.65,33.6 -17.17,38.4 0.48,4.8 -4.32,20.64 5.28,22.08 9.6,1.44 132.95,4.8 132.95,4.8 0,0 -17.28,-14.88 -14.88,-33.12 2.4,-18.24 -4.8,-106.55 -1.44,-129.59 3.36,-23.04 7.2,-105.59 7.2,-109.91 0,-4.32 -24,-64.31 -24,-64.31z"/>
     </g>
    </g>
    <polygon fill="none" fill-rule="nonzero" class="fil6" points="80.05,8.17 -0,8.17 -0,316.11 80.05,316.11 " />
    <path fill="#FEFEFE" fill-rule="nonzero" class="fil2" d="M212.37 188.68l8.17 0c26.14,0 65.75,-3.68 65.75,33.49 0,33.9 -40.02,32.67 -63.71,32.67l-10.21 0 0 -66.16zm43.29 127.42c56.36,0 111.5,-21.24 111.5,-85.77 0,-42.88 -18.79,-72.7 -62.89,-78.42l0 -0.82c24.91,-12.66 33.9,-35.12 33.9,-62.89 0,-58.81 -36.76,-80.05 -91.48,-80.05l-114.35 0 0 307.94 123.34 0zm-43.29 -246.68l5.72 0c21.65,0 46.56,1.63 46.56,29.81 0,26.14 -22.05,29.81 -43.29,29.81l-8.98 0 0 -59.63z"/>
    <path fill="#FEFEFE" fill-rule="nonzero" class="fil2" d="M616.13 15.52c-23.69,-9.8 -47.38,-15.52 -73.11,-15.52 -43.29,0 -86.99,18.79 -117.21,49.83 -29.41,30.22 -45.33,70.65 -45.33,112.72 0,45.74 15.52,85.77 49.42,116.4 31.85,29 72.69,45.33 115.58,45.33 24.91,0 44.11,-6.13 70.66,-14.29l0 -95.98c-16.75,20.01 -42.88,32.67 -69.02,32.67 -49.83,0 -83.32,-35.12 -83.32,-83.72 0,-47.78 33.08,-85.36 82.09,-85.36 27.36,0 53.91,11.84 70.25,33.9l0 -95.98z"/>
   </g>
  </g>
 </g>
</svg>
